<?xml version="1.0" standalone="no"?><!DOCTYPE svg PUBLIC "-//W3C//DTD SVG 1.1//EN" "http://www.w3.org/Graphics/SVG/1.1/DTD/svg11.dtd"><svg t="1664456300095" class="icon" viewBox="0 0 1024 1024" version="1.1" xmlns="http://www.w3.org/2000/svg" p-id="2473" xmlns:xlink="http://www.w3.org/1999/xlink" width="200" height="200"><path d="M512 53.333c-261.547 0-458.667 165.974-458.667 386.134 0 159.573 101.547 295.04 265.174 353.493a11.307 11.307 0 0 1 7.893 11.947 359.893 359.893 0 0 1-34.773 98.133A32 32 0 0 0 320 949.76a32.427 32.427 0 0 0 7.467 0c3.626 0 89.386-21.333 236.16-124.373a11.733 11.733 0 0 1 5.333-1.92c232.747-23.254 401.707-183.467 401.707-384 0-220.16-197.12-386.134-458.667-386.134zM586.667 544H373.333a32 32 0 0 1 0-64h213.334a32 32 0 0 1 0 64z m64-128H373.333a32 32 0 0 1 0-64h277.334a32 32 0 0 1 0 64z" p-id="2474" data-spm-anchor-id="a313x.7781069.0.i0" class="selected" fill="#0086f6"></path></svg>